<svg width="248" height="314" viewBox="0 0 248 314" fill="none" xmlns="http://www.w3.org/2000/svg">
<g filter="url(#filter0_i_189_16397)">
<g clip-path="url(#clip0_189_16397)">
<path d="M135.196 82.785C89.6105 65.3818 38.528 88.1589 21.0939 133.651L0 188.671V313.66C13.1875 313.66 25.6802 310.757 36.9066 305.599C67.2812 291.639 88.3596 261.033 88.3596 225.485V116.789C88.3596 97.1616 104.311 81.2408 123.985 81.2408C127.861 81.2408 131.598 81.874 135.103 83.0321L135.196 82.785Z" fill="url(#paint0_linear_189_16397)"/>
<path d="M128.293 80.3452C125.992 79.6812 123.691 79.1098 121.39 78.6311C118.966 78.137 116.557 77.7355 114.133 77.4421C113.808 77.4112 113.469 77.3649 113.144 77.3186C109.716 76.948 106.304 76.7781 102.906 76.809C89.3172 76.9171 76.0216 80.1754 64.0694 86.136C59.5912 88.3597 55.2829 90.9848 51.237 93.9651C48.5347 95.9417 45.9404 98.0882 43.4542 100.374C42.2189 101.516 41.0144 102.705 39.8253 103.925C36.845 107.014 34.0654 110.365 31.5329 113.916C29.8497 116.294 28.2747 118.765 26.8077 121.329C24.6149 125.174 22.6846 129.235 21.0478 133.512L6.00716 172.751L0.13916 188.023L0.417118 187.637L27.5798 149.866C42.5277 129.08 64.8724 116.742 88.4525 113.808C88.8849 108.357 90.5526 103.277 93.1623 98.7985C94.7683 96.0653 96.6831 93.5482 98.9377 91.34C101.347 88.9619 104.095 86.939 107.091 85.3176H107.107C108.095 84.7925 109.129 84.2984 110.164 83.866C110.288 83.8197 110.411 83.7888 110.535 83.727C111.477 83.341 112.434 82.9858 113.407 82.6924C113.669 82.6152 113.947 82.5534 114.21 82.4917C115.059 82.26 115.909 82.013 116.789 81.8431C117.345 81.735 117.931 81.6732 118.487 81.5806C119.09 81.4879 119.692 81.3798 120.294 81.3026C121.483 81.1791 122.703 81.1173 123.923 81.1173C124.896 81.1173 125.853 81.1482 126.811 81.2409C129.652 81.4725 132.416 82.0593 135.041 82.9086L135.134 82.6615C132.864 81.7968 130.579 81.0401 128.278 80.3607H128.293V80.3452Z" fill="url(#paint1_linear_189_16397)"/>
<path d="M123.594 -0.271484C55.3393 -0.271484 0 55.3792 0 124.031V189.285L21.0274 133.991C38.4066 88.2855 89.328 65.4171 134.769 82.8864L134.677 83.1347C148.854 87.8201 159.106 101.225 159.106 117.049V226.256C159.106 275.189 198.544 314.844 247.203 314.844V124.031C247.203 55.3792 191.864 -0.271484 123.609 -0.271484H123.594Z" fill="url(#paint2_linear_189_16397)"/>
<path d="M240.464 81.1945C239.074 77.3958 237.499 73.7051 235.77 70.0917C233.16 64.6869 230.164 59.4984 226.829 54.5569C221.254 46.3263 214.722 38.806 207.372 32.1504C204.438 29.4944 201.365 26.9619 198.184 24.5838C195.003 22.2057 191.698 19.9821 188.285 17.9128C169.554 6.56289 147.534 0 124 0C55.5143 0 0 55.4062 0 123.737V187.143C0.0463263 187.529 0.108095 187.899 0.154421 188.285L0.355168 187.73C5.34296 129.266 12.5544 67.2966 99.1846 45.3071C167.408 39.3928 227.524 89.7649 233.454 157.849L247.043 313.66C247.336 313.66 247.629 313.66 247.923 313.66H248V123.722C248 113.052 246.641 102.69 244.093 92.807C243.074 88.8538 241.854 84.9778 240.464 81.1945Z" fill="url(#paint3_linear_189_16397)"/>
</g>
</g>
<defs>
<filter id="filter0_i_189_16397" x="0" y="0" width="248" height="317.675" filterUnits="userSpaceOnUse" color-interpolation-filters="sRGB">
<feFlood flood-opacity="0" result="BackgroundImageFix"/>
<feBlend mode="normal" in="SourceGraphic" in2="BackgroundImageFix" result="shape"/>
<feColorMatrix in="SourceAlpha" type="matrix" values="0 0 0 0 0 0 0 0 0 0 0 0 0 0 0 0 0 0 127 0" result="hardAlpha"/>
<feOffset dy="4"/>
<feGaussianBlur stdDeviation="2"/>
<feComposite in2="hardAlpha" operator="arithmetic" k2="-1" k3="1"/>
<feColorMatrix type="matrix" values="0 0 0 0 0 0 0 0 0 0 0 0 0 0 0 0 0 0 0.25 0"/>
<feBlend mode="normal" in2="shape" result="effect1_innerShadow_189_16397"/>
</filter>
<linearGradient id="paint0_linear_189_16397" x1="0" y1="195.296" x2="135.196" y2="195.296" gradientUnits="userSpaceOnUse">
<stop stop-color="#6E74E7"/>
<stop offset="1" stop-color="#000E15"/>
</linearGradient>
<linearGradient id="paint1_linear_189_16397" x1="0.13916" y1="132.416" x2="135.134" y2="132.416" gradientUnits="userSpaceOnUse">
<stop stop-color="#686EDA"/>
<stop offset="0.905" stop-color="#011D26"/>
</linearGradient>
<linearGradient id="paint2_linear_189_16397" x1="0" y1="157.294" x2="247.203" y2="157.294" gradientUnits="userSpaceOnUse">
<stop stop-color="#7177EC"/>
<stop offset="1" stop-color="#001D25"/>
</linearGradient>
<linearGradient id="paint3_linear_189_16397" x1="127.691" y1="277.17" x2="117.607" y2="-58.1704" gradientUnits="userSpaceOnUse">
<stop stop-color="#011C25"/>
<stop offset="0.64" stop-color="#6A70DF"/>
<stop offset="1" stop-color="#15F3AF"/>
</linearGradient>
<clipPath id="clip0_189_16397">
<rect width="248" height="313.675" fill="white"/>
</clipPath>
</defs>
</svg>
