<svg width="1920" height="1482" viewBox="0 0 1920 1482" fill="none" xmlns="http://www.w3.org/2000/svg">
<g style="mix-blend-mode:lighten" opacity="0.3" filter="url(#filter0_f_0_1)">
<path d="M948.5 1291C1501.61 1291 1950 976.704 1950 589C1950 201.296 1501.61 -113 948.5 -113C395.387 -113 -53 201.296 -53 589C-53 976.704 395.387 1291 948.5 1291Z" fill="url(#paint0_radial_0_1)" style="mix-blend-mode:lighten"/>
</g>
<g style="mix-blend-mode:lighten" opacity="0.48" filter="url(#filter1_f_0_1)">
<path d="M1470 1320C1955.46 1320 2349 1043.98 2349 703.5C2349 363.016 1955.46 87 1470 87C984.542 87 591 363.016 591 703.5C591 1043.98 984.542 1320 1470 1320Z" fill="url(#paint1_radial_0_1)" fill-opacity="0.35" style="mix-blend-mode:lighten"/>
</g>
<g style="mix-blend-mode:lighten" opacity="0.48" filter="url(#filter2_f_0_1)">
<path d="M449 1067C934.458 1067 1328 790.984 1328 450.5C1328 110.016 934.458 -166 449 -166C-36.4583 -166 -430 110.016 -430 450.5C-430 790.984 -36.4583 1067 449 1067Z" fill="url(#paint2_radial_0_1)" fill-opacity="0.3" style="mix-blend-mode:lighten"/>
</g>
<g opacity="0.05">
<path d="M813 0H812V1482H813V0Z" fill="url(#paint3_linear_0_1)"/>
<path d="M375 0H374V1482H375V0Z" fill="url(#paint4_linear_0_1)"/>
<path d="M1252 0H1251V1482H1252V0Z" fill="url(#paint5_linear_0_1)"/>
<path d="M1033 0H1032V1482H1033V0Z" fill="url(#paint6_linear_0_1)"/>
<path d="M594 0H593V1482H594V0Z" fill="url(#paint7_linear_0_1)"/>
<path d="M1471 0H1470V1482H1471V0Z" fill="url(#paint8_linear_0_1)"/>
<path d="M1416 0H1415V1482H1416V0Z" fill="url(#paint9_linear_0_1)"/>
<path d="M1691 0H1690V1482H1691V0Z" fill="url(#paint10_linear_0_1)"/>
<path d="M868 0H867V1482H868V0Z" fill="url(#paint11_linear_0_1)"/>
<path d="M430 0H429V1482H430V0Z" fill="url(#paint12_linear_0_1)"/>
<path d="M1307 0H1306V1482H1307V0Z" fill="url(#paint13_linear_0_1)"/>
<path d="M210 0H209V1482H210V0Z" fill="url(#paint14_linear_0_1)"/>
<path d="M156 0H155V1482H156V0Z" fill="url(#paint15_linear_0_1)"/>
<path d="M1088 0H1087V1482H1088V0Z" fill="url(#paint16_linear_0_1)"/>
<path d="M649 0H648V1482H649V0Z" fill="url(#paint17_linear_0_1)"/>
<path d="M1526 0H1525V1482H1526V0Z" fill="url(#paint18_linear_0_1)"/>
<path d="M46 0H45V1482H46V0Z" fill="url(#paint19_linear_0_1)"/>
<path d="M923 0H922V1482H923V0Z" fill="url(#paint20_linear_0_1)"/>
<path d="M1362 0H1361V1482H1362V0Z" fill="url(#paint21_linear_0_1)"/>
<path d="M265 0H264V1482H265V0Z" fill="url(#paint22_linear_0_1)"/>
<path d="M1142 0H1141V1482H1142V0Z" fill="url(#paint23_linear_0_1)"/>
<path d="M704 0H703V1482H704V0Z" fill="url(#paint24_linear_0_1)"/>
<path d="M1581 0H1580V1482H1581V0Z" fill="url(#paint25_linear_0_1)"/>
<path d="M1800 0H1799V1482H1800V0Z" fill="url(#paint26_linear_0_1)"/>
<path d="M1746 0H1745V1482H1746V0Z" fill="url(#paint27_linear_0_1)"/>
<path d="M1910 0H1909V1482H1910V0Z" fill="url(#paint28_linear_0_1)"/>
<path d="M101 0H100V1482H101V0Z" fill="url(#paint29_linear_0_1)"/>
<path d="M978 0H977V1482H978V0Z" fill="url(#paint30_linear_0_1)"/>
<path d="M539 0H538V1482H539V0Z" fill="url(#paint31_linear_0_1)"/>
<path d="M485 0H484V1482H485V0Z" fill="url(#paint32_linear_0_1)"/>
<path d="M320 0H319V1482H320V0Z" fill="url(#paint33_linear_0_1)"/>
<path d="M1197 0H1196V1482H1197V0Z" fill="url(#paint34_linear_0_1)"/>
<path d="M759 0H758V1482H759V0Z" fill="url(#paint35_linear_0_1)"/>
<path d="M1636 0H1635V1482H1636V0Z" fill="url(#paint36_linear_0_1)"/>
<path d="M1855 0H1854V1482H1855V0Z" fill="url(#paint37_linear_0_1)"/>
<path d="M-10 1159V1160L1910 1160V1159L-10 1159Z" fill="url(#paint38_linear_0_1)"/>
<path d="M-10 720V721L1910 721V720L-10 720Z" fill="url(#paint39_linear_0_1)"/>
<path d="M-10 939V940L1910 940V939L-10 939Z" fill="url(#paint40_linear_0_1)"/>
<path opacity="0.25" d="M-10 1378V1379L1910 1379V1378L-10 1378Z" fill="url(#paint41_linear_0_1)"/>
<path d="M-10 501V502L1910 502V501L-10 501Z" fill="url(#paint42_linear_0_1)"/>
<path d="M-10 556V557L1910 557V556L-10 556Z" fill="url(#paint43_linear_0_1)"/>
<path d="M-10 281V282L1910 282V281L-10 281Z" fill="url(#paint44_linear_0_1)"/>
<path d="M-10 1104V1105L1910 1105V1104L-10 1104Z" fill="url(#paint45_linear_0_1)"/>
<path d="M-10 665V666L1910 666V665L-10 665Z" fill="url(#paint46_linear_0_1)"/>
<path d="M-10 884V885L1910 885V884L-10 884Z" fill="url(#paint47_linear_0_1)"/>
<path opacity="0.51" d="M-10 1323V1324L1910 1324V1323L-10 1323Z" fill="url(#paint48_linear_0_1)"/>
<path d="M-10 446V447L1910 447V446L-10 446Z" fill="url(#paint49_linear_0_1)"/>
<path d="M-10 1049V1050L1910 1050V1049L-10 1049Z" fill="url(#paint50_linear_0_1)"/>
<path d="M-10 610V611L1910 611V610L-10 610Z" fill="url(#paint51_linear_0_1)"/>
<path d="M-10 830V831L1910 831V830L-10 830Z" fill="url(#paint52_linear_0_1)"/>
<path d="M-10 1268V1269L1910 1269V1268L-10 1268Z" fill="url(#paint53_linear_0_1)"/>
<path d="M-10 391V392L1910 392V391L-10 391Z" fill="url(#paint54_linear_0_1)"/>
<path opacity="0.56" d="M-10 172V173L1910 173V172L-10 172Z" fill="url(#paint55_linear_0_1)"/>
<path d="M-10 226V227L1910 227V226L-10 226Z" fill="url(#paint56_linear_0_1)"/>
<path opacity="0.16" d="M-10 62V63L1910 63V62L-10 62Z" fill="url(#paint57_linear_0_1)"/>
<path d="M-10 994V995L1910 995V994L-10 994Z" fill="url(#paint58_linear_0_1)"/>
<path opacity="0.16" d="M-10 1433V1434L1910 1434V1433L-10 1433Z" fill="url(#paint59_linear_0_1)"/>
<path d="M-10 775V776L1910 776V775L-10 775Z" fill="url(#paint60_linear_0_1)"/>
<path d="M-10 1213V1214L1910 1214V1213L-10 1213Z" fill="url(#paint61_linear_0_1)"/>
<path d="M-10 336V337L1910 337V336L-10 336Z" fill="url(#paint62_linear_0_1)"/>
<path opacity="0.38" d="M-10 117V118L1910 118V117L-10 117Z" fill="url(#paint63_linear_0_1)"/>
</g>
<defs>
<filter id="filter0_f_0_1" x="-113" y="-173" width="2123" height="1524" filterUnits="userSpaceOnUse" color-interpolation-filters="sRGB">
<feFlood flood-opacity="0" result="BackgroundImageFix"/>
<feBlend mode="normal" in="SourceGraphic" in2="BackgroundImageFix" result="shape"/>
<feGaussianBlur stdDeviation="30" result="effect1_foregroundBlur_0_1"/>
</filter>
<filter id="filter1_f_0_1" x="531" y="27" width="1878" height="1353" filterUnits="userSpaceOnUse" color-interpolation-filters="sRGB">
<feFlood flood-opacity="0" result="BackgroundImageFix"/>
<feBlend mode="normal" in="SourceGraphic" in2="BackgroundImageFix" result="shape"/>
<feGaussianBlur stdDeviation="30" result="effect1_foregroundBlur_0_1"/>
</filter>
<filter id="filter2_f_0_1" x="-490" y="-226" width="1878" height="1353" filterUnits="userSpaceOnUse" color-interpolation-filters="sRGB">
<feFlood flood-opacity="0" result="BackgroundImageFix"/>
<feBlend mode="normal" in="SourceGraphic" in2="BackgroundImageFix" result="shape"/>
<feGaussianBlur stdDeviation="30" result="effect1_foregroundBlur_0_1"/>
</filter>
<radialGradient id="paint0_radial_0_1" cx="0" cy="0" r="1" gradientUnits="userSpaceOnUse" gradientTransform="translate(948.5 589) scale(1001.5 702)">
<stop stop-color="#7177EC"/>
<stop offset="1" stop-color="#0D0D10" stop-opacity="0"/>
</radialGradient>
<radialGradient id="paint1_radial_0_1" cx="0" cy="0" r="1" gradientUnits="userSpaceOnUse" gradientTransform="translate(1470 703.5) scale(879 616.5)">
<stop stop-color="#007EBB"/>
<stop offset="1" stop-color="#0D0D10" stop-opacity="0"/>
</radialGradient>
<radialGradient id="paint2_radial_0_1" cx="0" cy="0" r="1" gradientUnits="userSpaceOnUse" gradientTransform="translate(449 450.5) scale(879 616.5)">
<stop stop-color="#15F3AF"/>
<stop offset="1" stop-color="#0D0D10" stop-opacity="0"/>
</radialGradient>
<linearGradient id="paint3_linear_0_1" x1="812.5" y1="0" x2="812.5" y2="1482" gradientUnits="userSpaceOnUse">
<stop stop-color="white" stop-opacity="0.11"/>
<stop offset="0.452" stop-color="white" stop-opacity="0.969"/>
<stop offset="1" stop-color="white" stop-opacity="0.039"/>
</linearGradient>
<linearGradient id="paint4_linear_0_1" x1="374.5" y1="0" x2="374.5" y2="1482" gradientUnits="userSpaceOnUse">
<stop stop-color="white" stop-opacity="0.11"/>
<stop offset="0.452" stop-color="white" stop-opacity="0.969"/>
<stop offset="1" stop-color="white" stop-opacity="0.039"/>
</linearGradient>
<linearGradient id="paint5_linear_0_1" x1="1251.5" y1="0" x2="1251.5" y2="1482" gradientUnits="userSpaceOnUse">
<stop stop-color="white" stop-opacity="0.11"/>
<stop offset="0.452" stop-color="white" stop-opacity="0.969"/>
<stop offset="1" stop-color="white" stop-opacity="0.039"/>
</linearGradient>
<linearGradient id="paint6_linear_0_1" x1="1032.5" y1="0" x2="1032.5" y2="1482" gradientUnits="userSpaceOnUse">
<stop stop-color="white" stop-opacity="0.11"/>
<stop offset="0.452" stop-color="white" stop-opacity="0.969"/>
<stop offset="1" stop-color="white" stop-opacity="0.039"/>
</linearGradient>
<linearGradient id="paint7_linear_0_1" x1="593.5" y1="0" x2="593.5" y2="1482" gradientUnits="userSpaceOnUse">
<stop stop-color="white" stop-opacity="0.11"/>
<stop offset="0.452" stop-color="white" stop-opacity="0.969"/>
<stop offset="1" stop-color="white" stop-opacity="0.039"/>
</linearGradient>
<linearGradient id="paint8_linear_0_1" x1="1470.5" y1="0" x2="1470.5" y2="1482" gradientUnits="userSpaceOnUse">
<stop stop-color="white" stop-opacity="0.11"/>
<stop offset="0.452" stop-color="white" stop-opacity="0.969"/>
<stop offset="1" stop-color="white" stop-opacity="0.039"/>
</linearGradient>
<linearGradient id="paint9_linear_0_1" x1="1415.5" y1="0" x2="1415.5" y2="1482" gradientUnits="userSpaceOnUse">
<stop stop-color="white" stop-opacity="0.11"/>
<stop offset="0.452" stop-color="white" stop-opacity="0.969"/>
<stop offset="1" stop-color="white" stop-opacity="0.039"/>
</linearGradient>
<linearGradient id="paint10_linear_0_1" x1="1690.5" y1="0" x2="1690.5" y2="1482" gradientUnits="userSpaceOnUse">
<stop stop-color="white" stop-opacity="0.11"/>
<stop offset="0.452" stop-color="white" stop-opacity="0.969"/>
<stop offset="1" stop-color="white" stop-opacity="0.039"/>
</linearGradient>
<linearGradient id="paint11_linear_0_1" x1="867.5" y1="0" x2="867.5" y2="1482" gradientUnits="userSpaceOnUse">
<stop stop-color="white" stop-opacity="0.11"/>
<stop offset="0.452" stop-color="white" stop-opacity="0.969"/>
<stop offset="1" stop-color="white" stop-opacity="0.039"/>
</linearGradient>
<linearGradient id="paint12_linear_0_1" x1="429.5" y1="0" x2="429.5" y2="1482" gradientUnits="userSpaceOnUse">
<stop stop-color="white" stop-opacity="0.11"/>
<stop offset="0.452" stop-color="white" stop-opacity="0.969"/>
<stop offset="1" stop-color="white" stop-opacity="0.039"/>
</linearGradient>
<linearGradient id="paint13_linear_0_1" x1="1306.5" y1="0" x2="1306.5" y2="1482" gradientUnits="userSpaceOnUse">
<stop stop-color="white" stop-opacity="0.11"/>
<stop offset="0.452" stop-color="white" stop-opacity="0.969"/>
<stop offset="1" stop-color="white" stop-opacity="0.039"/>
</linearGradient>
<linearGradient id="paint14_linear_0_1" x1="209.5" y1="0" x2="209.5" y2="1482" gradientUnits="userSpaceOnUse">
<stop stop-color="white" stop-opacity="0.11"/>
<stop offset="0.452" stop-color="white" stop-opacity="0.969"/>
<stop offset="1" stop-color="white" stop-opacity="0.039"/>
</linearGradient>
<linearGradient id="paint15_linear_0_1" x1="155.5" y1="0" x2="155.5" y2="1482" gradientUnits="userSpaceOnUse">
<stop stop-color="white" stop-opacity="0.11"/>
<stop offset="0.452" stop-color="white" stop-opacity="0.969"/>
<stop offset="1" stop-color="white" stop-opacity="0.039"/>
</linearGradient>
<linearGradient id="paint16_linear_0_1" x1="1087.5" y1="0" x2="1087.5" y2="1482" gradientUnits="userSpaceOnUse">
<stop stop-color="white" stop-opacity="0.11"/>
<stop offset="0.452" stop-color="white" stop-opacity="0.969"/>
<stop offset="1" stop-color="white" stop-opacity="0.039"/>
</linearGradient>
<linearGradient id="paint17_linear_0_1" x1="648.5" y1="0" x2="648.5" y2="1482" gradientUnits="userSpaceOnUse">
<stop stop-color="white" stop-opacity="0.11"/>
<stop offset="0.452" stop-color="white" stop-opacity="0.969"/>
<stop offset="1" stop-color="white" stop-opacity="0.039"/>
</linearGradient>
<linearGradient id="paint18_linear_0_1" x1="1525.5" y1="0" x2="1525.5" y2="1482" gradientUnits="userSpaceOnUse">
<stop stop-color="white" stop-opacity="0.11"/>
<stop offset="0.452" stop-color="white" stop-opacity="0.969"/>
<stop offset="1" stop-color="white" stop-opacity="0.039"/>
</linearGradient>
<linearGradient id="paint19_linear_0_1" x1="45.5" y1="0" x2="45.5" y2="1482" gradientUnits="userSpaceOnUse">
<stop stop-color="white" stop-opacity="0.11"/>
<stop offset="0.452" stop-color="white" stop-opacity="0.969"/>
<stop offset="1" stop-color="white" stop-opacity="0.039"/>
</linearGradient>
<linearGradient id="paint20_linear_0_1" x1="922.5" y1="0" x2="922.5" y2="1482" gradientUnits="userSpaceOnUse">
<stop stop-color="white" stop-opacity="0.11"/>
<stop offset="0.452" stop-color="white" stop-opacity="0.969"/>
<stop offset="1" stop-color="white" stop-opacity="0.039"/>
</linearGradient>
<linearGradient id="paint21_linear_0_1" x1="1361.5" y1="0" x2="1361.5" y2="1482" gradientUnits="userSpaceOnUse">
<stop stop-color="white" stop-opacity="0.11"/>
<stop offset="0.452" stop-color="white" stop-opacity="0.969"/>
<stop offset="1" stop-color="white" stop-opacity="0.039"/>
</linearGradient>
<linearGradient id="paint22_linear_0_1" x1="264.5" y1="0" x2="264.5" y2="1482" gradientUnits="userSpaceOnUse">
<stop stop-color="white" stop-opacity="0.11"/>
<stop offset="0.452" stop-color="white" stop-opacity="0.969"/>
<stop offset="1" stop-color="white" stop-opacity="0.039"/>
</linearGradient>
<linearGradient id="paint23_linear_0_1" x1="1141.5" y1="0" x2="1141.5" y2="1482" gradientUnits="userSpaceOnUse">
<stop stop-color="white" stop-opacity="0.11"/>
<stop offset="0.452" stop-color="white" stop-opacity="0.969"/>
<stop offset="1" stop-color="white" stop-opacity="0.039"/>
</linearGradient>
<linearGradient id="paint24_linear_0_1" x1="703.5" y1="0" x2="703.5" y2="1482" gradientUnits="userSpaceOnUse">
<stop stop-color="white" stop-opacity="0.11"/>
<stop offset="0.452" stop-color="white" stop-opacity="0.969"/>
<stop offset="1" stop-color="white" stop-opacity="0.039"/>
</linearGradient>
<linearGradient id="paint25_linear_0_1" x1="1580.5" y1="0" x2="1580.5" y2="1482" gradientUnits="userSpaceOnUse">
<stop stop-color="white" stop-opacity="0.11"/>
<stop offset="0.452" stop-color="white" stop-opacity="0.969"/>
<stop offset="1" stop-color="white" stop-opacity="0.039"/>
</linearGradient>
<linearGradient id="paint26_linear_0_1" x1="1799.5" y1="0" x2="1799.5" y2="1482" gradientUnits="userSpaceOnUse">
<stop stop-color="white" stop-opacity="0.11"/>
<stop offset="0.452" stop-color="white" stop-opacity="0.969"/>
<stop offset="1" stop-color="white" stop-opacity="0.039"/>
</linearGradient>
<linearGradient id="paint27_linear_0_1" x1="1745.5" y1="0" x2="1745.5" y2="1482" gradientUnits="userSpaceOnUse">
<stop stop-color="white" stop-opacity="0.11"/>
<stop offset="0.452" stop-color="white" stop-opacity="0.969"/>
<stop offset="1" stop-color="white" stop-opacity="0.039"/>
</linearGradient>
<linearGradient id="paint28_linear_0_1" x1="1909.5" y1="0" x2="1909.5" y2="1482" gradientUnits="userSpaceOnUse">
<stop stop-color="white" stop-opacity="0.11"/>
<stop offset="0.452" stop-color="white" stop-opacity="0.969"/>
<stop offset="1" stop-color="white" stop-opacity="0.039"/>
</linearGradient>
<linearGradient id="paint29_linear_0_1" x1="100.5" y1="0" x2="100.5" y2="1482" gradientUnits="userSpaceOnUse">
<stop stop-color="white" stop-opacity="0.11"/>
<stop offset="0.452" stop-color="white" stop-opacity="0.969"/>
<stop offset="1" stop-color="white" stop-opacity="0.039"/>
</linearGradient>
<linearGradient id="paint30_linear_0_1" x1="977.5" y1="0" x2="977.5" y2="1482" gradientUnits="userSpaceOnUse">
<stop stop-color="white" stop-opacity="0.11"/>
<stop offset="0.452" stop-color="white" stop-opacity="0.969"/>
<stop offset="1" stop-color="white" stop-opacity="0.039"/>
</linearGradient>
<linearGradient id="paint31_linear_0_1" x1="538.5" y1="0" x2="538.5" y2="1482" gradientUnits="userSpaceOnUse">
<stop stop-color="white" stop-opacity="0.11"/>
<stop offset="0.452" stop-color="white" stop-opacity="0.969"/>
<stop offset="1" stop-color="white" stop-opacity="0.039"/>
</linearGradient>
<linearGradient id="paint32_linear_0_1" x1="484.5" y1="0" x2="484.5" y2="1482" gradientUnits="userSpaceOnUse">
<stop stop-color="white" stop-opacity="0.11"/>
<stop offset="0.452" stop-color="white" stop-opacity="0.969"/>
<stop offset="1" stop-color="white" stop-opacity="0.039"/>
</linearGradient>
<linearGradient id="paint33_linear_0_1" x1="319.5" y1="0" x2="319.5" y2="1482" gradientUnits="userSpaceOnUse">
<stop stop-color="white" stop-opacity="0.11"/>
<stop offset="0.452" stop-color="white" stop-opacity="0.969"/>
<stop offset="1" stop-color="white" stop-opacity="0.039"/>
</linearGradient>
<linearGradient id="paint34_linear_0_1" x1="1196.5" y1="0" x2="1196.5" y2="1482" gradientUnits="userSpaceOnUse">
<stop stop-color="white" stop-opacity="0.11"/>
<stop offset="0.452" stop-color="white" stop-opacity="0.969"/>
<stop offset="1" stop-color="white" stop-opacity="0.039"/>
</linearGradient>
<linearGradient id="paint35_linear_0_1" x1="758.5" y1="0" x2="758.5" y2="1482" gradientUnits="userSpaceOnUse">
<stop stop-color="white" stop-opacity="0.11"/>
<stop offset="0.452" stop-color="white" stop-opacity="0.969"/>
<stop offset="1" stop-color="white" stop-opacity="0.039"/>
</linearGradient>
<linearGradient id="paint36_linear_0_1" x1="1635.5" y1="0" x2="1635.5" y2="1482" gradientUnits="userSpaceOnUse">
<stop stop-color="white" stop-opacity="0.11"/>
<stop offset="0.452" stop-color="white" stop-opacity="0.969"/>
<stop offset="1" stop-color="white" stop-opacity="0.039"/>
</linearGradient>
<linearGradient id="paint37_linear_0_1" x1="1854.5" y1="0" x2="1854.5" y2="1482" gradientUnits="userSpaceOnUse">
<stop stop-color="white" stop-opacity="0.11"/>
<stop offset="0.452" stop-color="white" stop-opacity="0.969"/>
<stop offset="1" stop-color="white" stop-opacity="0.039"/>
</linearGradient>
<linearGradient id="paint38_linear_0_1" x1="-10" y1="1159.5" x2="1910" y2="1159.5" gradientUnits="userSpaceOnUse">
<stop stop-color="white" stop-opacity="0.11"/>
<stop offset="0.452" stop-color="white" stop-opacity="0.969"/>
<stop offset="1" stop-color="white" stop-opacity="0.039"/>
</linearGradient>
<linearGradient id="paint39_linear_0_1" x1="-10" y1="720.5" x2="1910" y2="720.5" gradientUnits="userSpaceOnUse">
<stop stop-color="white" stop-opacity="0.11"/>
<stop offset="0.452" stop-color="white" stop-opacity="0.969"/>
<stop offset="1" stop-color="white" stop-opacity="0.039"/>
</linearGradient>
<linearGradient id="paint40_linear_0_1" x1="-10" y1="939.5" x2="1910" y2="939.5" gradientUnits="userSpaceOnUse">
<stop stop-color="white" stop-opacity="0.11"/>
<stop offset="0.452" stop-color="white" stop-opacity="0.969"/>
<stop offset="1" stop-color="white" stop-opacity="0.039"/>
</linearGradient>
<linearGradient id="paint41_linear_0_1" x1="-10" y1="1378.5" x2="1910" y2="1378.5" gradientUnits="userSpaceOnUse">
<stop stop-color="white" stop-opacity="0.11"/>
<stop offset="0.452" stop-color="white" stop-opacity="0.969"/>
<stop offset="1" stop-color="white" stop-opacity="0.039"/>
</linearGradient>
<linearGradient id="paint42_linear_0_1" x1="-10" y1="501.5" x2="1910" y2="501.5" gradientUnits="userSpaceOnUse">
<stop stop-color="white" stop-opacity="0.11"/>
<stop offset="0.452" stop-color="white" stop-opacity="0.969"/>
<stop offset="1" stop-color="white" stop-opacity="0.039"/>
</linearGradient>
<linearGradient id="paint43_linear_0_1" x1="-10" y1="556.5" x2="1910" y2="556.5" gradientUnits="userSpaceOnUse">
<stop stop-color="white" stop-opacity="0.11"/>
<stop offset="0.452" stop-color="white" stop-opacity="0.969"/>
<stop offset="1" stop-color="white" stop-opacity="0.039"/>
</linearGradient>
<linearGradient id="paint44_linear_0_1" x1="-10" y1="281.5" x2="1910" y2="281.5" gradientUnits="userSpaceOnUse">
<stop stop-color="white" stop-opacity="0.11"/>
<stop offset="0.452" stop-color="white" stop-opacity="0.969"/>
<stop offset="1" stop-color="white" stop-opacity="0.039"/>
</linearGradient>
<linearGradient id="paint45_linear_0_1" x1="-10" y1="1104.5" x2="1910" y2="1104.5" gradientUnits="userSpaceOnUse">
<stop stop-color="white" stop-opacity="0.11"/>
<stop offset="0.452" stop-color="white" stop-opacity="0.969"/>
<stop offset="1" stop-color="white" stop-opacity="0.039"/>
</linearGradient>
<linearGradient id="paint46_linear_0_1" x1="-10" y1="665.5" x2="1910" y2="665.5" gradientUnits="userSpaceOnUse">
<stop stop-color="white" stop-opacity="0.11"/>
<stop offset="0.452" stop-color="white" stop-opacity="0.969"/>
<stop offset="1" stop-color="white" stop-opacity="0.039"/>
</linearGradient>
<linearGradient id="paint47_linear_0_1" x1="-10" y1="884.5" x2="1910" y2="884.5" gradientUnits="userSpaceOnUse">
<stop stop-color="white" stop-opacity="0.11"/>
<stop offset="0.452" stop-color="white" stop-opacity="0.969"/>
<stop offset="1" stop-color="white" stop-opacity="0.039"/>
</linearGradient>
<linearGradient id="paint48_linear_0_1" x1="-10" y1="1323.5" x2="1910" y2="1323.5" gradientUnits="userSpaceOnUse">
<stop stop-color="white" stop-opacity="0.11"/>
<stop offset="0.452" stop-color="white" stop-opacity="0.969"/>
<stop offset="1" stop-color="white" stop-opacity="0.039"/>
</linearGradient>
<linearGradient id="paint49_linear_0_1" x1="-10" y1="446.5" x2="1910" y2="446.5" gradientUnits="userSpaceOnUse">
<stop stop-color="white" stop-opacity="0.11"/>
<stop offset="0.452" stop-color="white" stop-opacity="0.969"/>
<stop offset="1" stop-color="white" stop-opacity="0.039"/>
</linearGradient>
<linearGradient id="paint50_linear_0_1" x1="-10" y1="1049.5" x2="1910" y2="1049.5" gradientUnits="userSpaceOnUse">
<stop stop-color="white" stop-opacity="0.11"/>
<stop offset="0.452" stop-color="white" stop-opacity="0.969"/>
<stop offset="1" stop-color="white" stop-opacity="0.039"/>
</linearGradient>
<linearGradient id="paint51_linear_0_1" x1="-10" y1="610.5" x2="1910" y2="610.5" gradientUnits="userSpaceOnUse">
<stop stop-color="white" stop-opacity="0.11"/>
<stop offset="0.452" stop-color="white" stop-opacity="0.969"/>
<stop offset="1" stop-color="white" stop-opacity="0.039"/>
</linearGradient>
<linearGradient id="paint52_linear_0_1" x1="-10" y1="830.5" x2="1910" y2="830.5" gradientUnits="userSpaceOnUse">
<stop stop-color="white" stop-opacity="0.11"/>
<stop offset="0.452" stop-color="white" stop-opacity="0.969"/>
<stop offset="1" stop-color="white" stop-opacity="0.039"/>
</linearGradient>
<linearGradient id="paint53_linear_0_1" x1="-10" y1="1268.5" x2="1910" y2="1268.5" gradientUnits="userSpaceOnUse">
<stop stop-color="white" stop-opacity="0.11"/>
<stop offset="0.452" stop-color="white" stop-opacity="0.969"/>
<stop offset="1" stop-color="white" stop-opacity="0.039"/>
</linearGradient>
<linearGradient id="paint54_linear_0_1" x1="-10" y1="391.5" x2="1910" y2="391.5" gradientUnits="userSpaceOnUse">
<stop stop-color="white" stop-opacity="0.11"/>
<stop offset="0.452" stop-color="white" stop-opacity="0.969"/>
<stop offset="1" stop-color="white" stop-opacity="0.039"/>
</linearGradient>
<linearGradient id="paint55_linear_0_1" x1="-10" y1="172.5" x2="1910" y2="172.5" gradientUnits="userSpaceOnUse">
<stop stop-color="white" stop-opacity="0.11"/>
<stop offset="0.452" stop-color="white" stop-opacity="0.969"/>
<stop offset="1" stop-color="white" stop-opacity="0.039"/>
</linearGradient>
<linearGradient id="paint56_linear_0_1" x1="-10" y1="226.5" x2="1910" y2="226.5" gradientUnits="userSpaceOnUse">
<stop stop-color="white" stop-opacity="0.11"/>
<stop offset="0.452" stop-color="white" stop-opacity="0.969"/>
<stop offset="1" stop-color="white" stop-opacity="0.039"/>
</linearGradient>
<linearGradient id="paint57_linear_0_1" x1="-10" y1="62.5" x2="1910" y2="62.5" gradientUnits="userSpaceOnUse">
<stop stop-color="white" stop-opacity="0.11"/>
<stop offset="0.452" stop-color="white" stop-opacity="0.969"/>
<stop offset="1" stop-color="white" stop-opacity="0.039"/>
</linearGradient>
<linearGradient id="paint58_linear_0_1" x1="-10" y1="994.5" x2="1910" y2="994.5" gradientUnits="userSpaceOnUse">
<stop stop-color="white" stop-opacity="0.11"/>
<stop offset="0.452" stop-color="white" stop-opacity="0.969"/>
<stop offset="1" stop-color="white" stop-opacity="0.039"/>
</linearGradient>
<linearGradient id="paint59_linear_0_1" x1="-10" y1="1433.5" x2="1910" y2="1433.5" gradientUnits="userSpaceOnUse">
<stop stop-color="white" stop-opacity="0.11"/>
<stop offset="0.452" stop-color="white" stop-opacity="0.969"/>
<stop offset="1" stop-color="white" stop-opacity="0.039"/>
</linearGradient>
<linearGradient id="paint60_linear_0_1" x1="-10" y1="775.5" x2="1910" y2="775.5" gradientUnits="userSpaceOnUse">
<stop stop-color="white" stop-opacity="0.11"/>
<stop offset="0.452" stop-color="white" stop-opacity="0.969"/>
<stop offset="1" stop-color="white" stop-opacity="0.039"/>
</linearGradient>
<linearGradient id="paint61_linear_0_1" x1="-10" y1="1213.5" x2="1910" y2="1213.5" gradientUnits="userSpaceOnUse">
<stop stop-color="white" stop-opacity="0.11"/>
<stop offset="0.452" stop-color="white" stop-opacity="0.969"/>
<stop offset="1" stop-color="white" stop-opacity="0.039"/>
</linearGradient>
<linearGradient id="paint62_linear_0_1" x1="-10" y1="336.5" x2="1910" y2="336.5" gradientUnits="userSpaceOnUse">
<stop stop-color="white" stop-opacity="0.11"/>
<stop offset="0.452" stop-color="white" stop-opacity="0.969"/>
<stop offset="1" stop-color="white" stop-opacity="0.039"/>
</linearGradient>
<linearGradient id="paint63_linear_0_1" x1="-10" y1="117.5" x2="1910" y2="117.5" gradientUnits="userSpaceOnUse">
<stop stop-color="white" stop-opacity="0.11"/>
<stop offset="0.452" stop-color="white" stop-opacity="0.969"/>
<stop offset="1" stop-color="white" stop-opacity="0.039"/>
</linearGradient>
</defs>
</svg>
