<svg width="825" height="751" viewBox="0 0 825 751" fill="none" xmlns="http://www.w3.org/2000/svg">
<mask id="mask0_189_16022" style="mask-type:luminance" maskUnits="userSpaceOnUse" x="0" y="-449" width="1418" height="1200">
<path d="M1418 -449H0.785156V751H1418V-449Z" fill="white"/>
</mask>
<g mask="url(#mask0_189_16022)">
<g opacity="0.6">
<path d="M-140.343 439.475C-129.76 450.058 -129.76 467.216 -140.343 477.799L-221.122 558.578C-231.704 569.161 -231.704 586.319 -221.122 596.903C-210.539 607.485 -210.539 624.643 -221.122 635.227L-238.067 652.173C-248.65 662.755 -248.65 679.913 -238.067 690.497C-227.485 701.079 -210.327 701.079 -199.743 690.497L72.6542 418.098C83.2369 407.515 83.2369 390.358 72.6542 379.774C62.0717 369.191 62.0717 352.034 72.6542 341.45L89.6 324.504C100.183 313.921 100.183 296.764 89.6 286.18C79.0175 275.597 79.0175 258.439 89.6 247.857L170.379 167.078C180.962 156.495 180.962 139.337 170.379 128.755C159.796 118.172 142.639 118.172 132.056 128.755L86.7262 174.085C76.1436 184.667 58.9858 184.667 48.4031 174.085C37.8205 163.502 20.6627 163.502 10.079 174.085L-49.0231 233.187C-59.6057 243.769 -76.7635 243.769 -87.3462 233.187C-97.9288 222.604 -97.9288 205.446 -87.3462 194.864L-63.6932 171.211C-53.1106 160.628 -53.1106 143.47 -63.6932 132.887C-74.2758 122.304 -74.2758 105.146 -63.6932 94.5625L-15.4895 46.3588C-4.90692 35.7761 -4.90692 18.6183 -15.4895 8.03462C-26.0721 -2.548 -43.2299 -2.548 -53.8137 8.03462L-102.017 56.2383C-112.6 66.821 -129.758 66.821 -140.341 56.2383C-150.924 45.6557 -168.082 45.6557 -178.666 56.2383L-451.063 328.636C-461.646 339.218 -461.646 356.376 -451.063 366.96C-440.48 377.543 -423.323 377.543 -412.739 366.96L-364.535 318.756C-353.953 308.174 -336.795 308.174 -326.212 318.756C-315.63 329.339 -315.63 346.497 -326.212 357.08L-374.416 405.284C-384.999 415.867 -384.999 433.024 -374.416 443.608C-363.833 454.191 -363.833 471.349 -374.416 481.932L-398.069 505.585C-408.651 516.168 -408.651 533.326 -398.069 543.909C-387.486 554.492 -370.328 554.492 -359.745 543.909L-300.643 484.807C-290.06 474.225 -272.902 474.225 -262.318 484.807C-251.736 495.39 -234.578 495.39 -223.994 484.807L-178.665 439.477C-168.083 428.893 -150.925 428.893 -140.343 439.475Z" fill="url(#paint0_linear_189_16022)" fill-opacity="0.8"/>
<path d="M70.9062 1035.05L99.1875 1006.77C110.01 995.946 127.557 995.946 138.38 1006.77C149.203 1017.59 166.75 1017.59 177.573 1006.77L486.207 698.135C496.9 687.442 496.9 670.105 486.207 659.412L485.737 658.942C475.044 648.249 457.707 648.249 447.014 658.942L418.498 687.458C407.676 698.281 390.128 698.281 379.306 687.458C368.483 676.636 368.483 659.088 379.306 648.266L387.5 640.071C398.193 629.378 398.193 612.041 387.5 601.348L387.031 600.879C376.338 590.186 376.338 572.848 387.031 562.155C397.724 551.462 397.724 534.125 387.031 523.432L386.561 522.963C375.868 512.27 358.531 512.27 347.838 522.963L316.912 553.889C306.219 564.581 288.882 564.581 278.189 553.889L277.719 553.419C267.026 542.726 249.689 542.726 238.996 553.419L-69.6369 862.053C-80.4596 872.876 -80.4596 890.423 -69.6369 901.246C-58.8141 912.069 -41.2669 912.069 -30.4442 901.246L0.481636 870.32C11.0448 859.757 28.1723 859.757 38.7355 870.32L39.6732 871.259C50.2364 881.822 50.2364 898.949 39.6732 909.513C28.8505 920.335 28.8505 937.883 39.6732 948.704C50.496 959.527 50.496 977.074 39.6732 987.897L31.7136 995.857C20.8908 1006.68 20.8908 1024.23 31.7136 1035.05C42.5363 1045.87 60.0835 1045.87 70.9062 1035.05Z" fill="url(#paint1_linear_189_16022)" fill-opacity="0.8"/>
<path d="M-261.471 792.814L-412.706 944.049C-423.529 954.872 -423.529 972.419 -412.706 983.242C-401.883 994.065 -384.336 994.065 -373.514 983.242L-313.257 922.986C-302.435 912.163 -284.887 912.163 -274.065 922.986C-263.242 933.809 -263.242 951.356 -274.065 962.179L-358.819 1046.93C-369.641 1057.76 -369.641 1075.3 -358.819 1086.13C-347.996 1096.95 -330.449 1096.95 -319.626 1086.13L-302.081 1068.58C-291.258 1057.76 -273.711 1057.76 -262.888 1068.58C-252.065 1079.4 -234.518 1079.4 -223.696 1068.58L-186.399 1031.28C-175.576 1020.46 -158.029 1020.46 -147.206 1031.28L-146.258 1032.23C-135.958 1042.53 -135.958 1059.23 -146.258 1069.53C-157.08 1080.35 -157.08 1097.9 -146.258 1108.72C-135.435 1119.54 -117.888 1119.54 -107.065 1108.72L284.069 717.587C294.63 707.026 294.63 689.904 284.069 679.343L283.12 678.395C272.559 667.834 272.559 650.712 283.12 640.151C293.681 629.59 293.681 612.468 283.12 601.907L282.172 600.958C271.611 590.397 254.489 590.397 243.928 600.958L205.684 639.202C195.123 649.763 178 649.763 167.439 639.202L166.491 638.254C155.93 627.693 138.808 627.693 128.247 638.254L110.228 656.272C99.4053 667.095 81.8581 667.095 71.0353 656.272C60.2126 645.45 60.2126 627.902 71.0353 617.08L156.264 531.851C166.825 521.29 166.825 504.168 156.264 493.607L155.315 492.658C144.755 482.097 127.632 482.097 117.071 492.658L56.3415 553.388C45.5187 564.211 27.9715 564.211 17.1488 553.388C6.32602 542.565 6.32602 525.018 17.1488 514.196L168.857 362.487C179.418 351.926 179.418 334.804 168.857 324.243L167.909 323.294C157.348 312.733 140.226 312.733 129.665 323.294L-261.469 714.428C-272.292 725.251 -272.292 742.798 -261.469 753.621C-250.649 764.445 -250.649 781.992 -261.471 792.814Z" fill="url(#paint2_linear_189_16022)" fill-opacity="0.8"/>
<path d="M424.171 1208.8L423.702 1208.33C413.01 1197.63 413.011 1180.3 423.704 1169.6L428.301 1165.01C438.994 1154.31 438.995 1136.98 428.303 1126.28L427.834 1125.81C417.142 1115.12 417.143 1097.78 427.836 1087.09L469.292 1045.63C480.115 1034.81 480.115 1017.26 469.292 1006.44C458.47 995.617 440.923 995.617 430.1 1006.44L368.829 1067.71C358.136 1078.4 340.8 1078.4 330.107 1067.71L329.637 1067.24C318.944 1056.55 318.946 1039.21 329.639 1028.52L464.475 893.679C475.298 882.856 475.298 865.309 464.475 854.486C453.652 843.663 436.105 843.663 425.282 854.486L290.445 989.324C279.752 1000.02 262.414 1000.02 251.721 989.324L251.252 988.854C240.559 978.16 240.56 960.823 251.253 950.13L559.885 641.497C570.708 630.674 588.255 630.674 599.078 641.497C609.9 652.32 627.448 652.32 638.27 641.497L772.873 506.894C783.696 496.071 801.243 496.071 812.066 506.894C822.889 517.717 822.889 535.264 812.066 546.087L677.463 680.691C666.64 691.513 666.64 709.061 677.463 719.883C688.286 730.706 705.833 730.706 716.656 719.883L777.691 658.848C788.513 648.026 806.061 648.026 816.883 658.848C827.706 669.671 827.706 687.218 816.883 698.041L775.658 739.266C764.836 750.089 764.836 767.636 775.658 778.459C786.481 789.281 786.481 806.829 775.658 817.651L771.527 821.783C760.704 832.606 760.704 850.153 771.527 860.976C782.349 871.799 782.349 889.346 771.527 900.168L462.894 1208.8C452.202 1219.49 434.864 1219.49 424.171 1208.8Z" fill="url(#paint3_linear_189_16022)" fill-opacity="0.8"/>
</g>
</g>
<defs>
<linearGradient id="paint0_linear_189_16022" x1="-140.342" y1="104.563" x2="-140.342" y2="1206.74" gradientUnits="userSpaceOnUse">
<stop stop-color="#686EDA" stop-opacity="0"/>
<stop offset="1" stop-color="#7177EC"/>
</linearGradient>
<linearGradient id="paint1_linear_189_16022" x1="208.236" y1="514.943" x2="208.236" y2="1043.17" gradientUnits="userSpaceOnUse">
<stop stop-color="#686EDA" stop-opacity="0"/>
<stop offset="1" stop-color="#686EDA"/>
</linearGradient>
<linearGradient id="paint2_linear_189_16022" x1="-64.4168" y1="315.373" x2="-64.4168" y2="1116.84" gradientUnits="userSpaceOnUse">
<stop stop-color="#070E19" stop-opacity="0"/>
<stop offset="1" stop-color="#080F1A"/>
</linearGradient>
<linearGradient id="paint3_linear_189_16022" x1="534.117" y1="498.777" x2="534.117" y2="1216.82" gradientUnits="userSpaceOnUse">
<stop stop-color="#686EDA" stop-opacity="0"/>
<stop offset="1" stop-color="#686EDA"/>
</linearGradient>
</defs>
</svg>
